<svg xmlns="http://www.w3.org/2000/svg" viewBox="0 0 32 32">
  <path fill="#02457a" d="M29 14a3 3 0 1 0-4 2.82V20a7 7 0 0 1-14 0v-1h.13A2.73 2.73 0 0 0 14 16.44v-1.61a6.39 6.39 0 0 0 3-5.33V4a1 1 0 0 0-1-1h-2.18a1 1 0 0 0 0 2H15v4.5a4.77 4.77 0 0 1-5 4.5 4.77 4.77 0 0 1-5-4.5V5h1.18a1 1 0 0 0 0-2H4a1 1 0 0 0-1 1v5.5a6.39 6.39 0 0 0 3 5.33v1.61A2.73 2.73 0 0 0 8.87 19H9v1a9 9 0 0 0 18 0v-3.18A3 3 0 0 0 29 14zM8 16.44v-.71a7.54 7.54 0 0 0 4 0v.71c0 .26-.37.56-.87.56H8.87c-.5 0-.87-.29-.87-.56zM26 15a1 1 0 1 1 1-1 1 1 0 0 1-1 1z"/>
</svg>