<svg xmlns="http://www.w3.org/2000/svg" viewBox="0 0 32 32">
  <path fill="#02457a" d="m12.71 19.71 3.84-3.85A7.41 7.41 0 0 0 20.5 17a7.53 7.53 0 1 0-5.5-2.42l-3.71 3.71a.25.25 0 0 0 0 .07 2.59 2.59 0 0 0-2.69.54l-6.76 6.72a1 1 0 0 0-.29.71 1.05 1.05 0 0 0 .29.71L4 29.16a1.05 1.05 0 0 0 .71.29 1 1 0 0 0 .71-.29l6.72-6.72a2.49 2.49 0 0 0 .73-1.77 2.6 2.6 0 0 0-.18-.92zM20.5 4A5.5 5.5 0 1 1 15 9.5 5.51 5.51 0 0 1 20.5 4zm-9.82 17-6 6-.68-.67 6-6a.51.51 0 0 1 .36-.15.51.51 0 0 1 .5.5.51.51 0 0 1-.18.32zM28 25H18a1 1 0 0 0-1 1v3a1 1 0 0 0 1 1h10a1 1 0 0 0 1-1v-3a1 1 0 0 0-1-1zm-1 3h-8v-1h8zm-5-6a1 1 0 1 1-1 1 1 1 0 0 1 1-1zm2 1a1 1 0 1 1 1 1 1 1 0 0 1-1-1zm0-2a1 1 0 1 1 1-1 1 1 0 0 1-1 1z"/>
</svg>