<svg xmlns="http://www.w3.org/2000/svg" viewBox="0 0 32 32">
  <path fill="#02457a" d="M29 28h-1V16a1 1 0 0 0-1-1h-6V3a1 1 0 0 0-1-1H5a1 1 0 0 0-1 1v25H3a1 1 0 0 0 0 2h26a1 1 0 0 0 0-2zm-3-11v11h-5V17zM15 28h-5v-5.95h5zm2 0v-6.95a1 1 0 0 0-1-1H9a1 1 0 0 0-1 1v7H6V4h13v24zm-4.5-17a1 1 0 0 1-1-1V9h-1a1 1 0 0 1 0-2h1V6a1 1 0 0 1 2 0v1h1a1 1 0 0 1 0 2h-1v1a1 1 0 0 1-1 1zm-.5 3a1 1 0 0 1-1 1H9a1 1 0 0 1 0-2h2a1 1 0 0 1 1 1zm5 0a1 1 0 0 1-1 1h-2a1 1 0 0 1 0-2h2a1 1 0 0 1 1 1zm-5 3a1 1 0 0 1-1 1H9a1 1 0 0 1 0-2h2a1 1 0 0 1 1 1zm5 0a1 1 0 0 1-1 1h-2a1 1 0 0 1 0-2h2a1 1 0 0 1 1 1z"/>
</svg>