<svg xmlns="http://www.w3.org/2000/svg" viewBox="0 0 32 32">
  <path fill="#02457a" d="M28.38 3h-6.76A1.61 1.61 0 0 0 20 4.62V11h-.5a2.49 2.49 0 0 0-1.83 4.19L16.46 17H13v-5a1 1 0 0 0-2 0v5.38A1.61 1.61 0 0 0 12.62 19h4.05a1.6 1.6 0 0 0 1.33-.72L19.54 16h7.1a.36.36 0 0 1 .36.36V23h-8.89a3.63 3.63 0 0 1 3.39-3 3.35 3.35 0 0 1 2.77 1.56 1 1 0 1 0 1.66-1.12A5.38 5.38 0 0 0 21.5 18a5.68 5.68 0 0 0-5.42 5h-12a3.61 3.61 0 0 1 3.42-3 3.35 3.35 0 0 1 2.77 1.56 1 1 0 1 0 1.66-1.12A5.38 5.38 0 0 0 7.5 18a2.85 2.85 0 0 0-.29 0l1.61-8H14a1 1 0 0 0 1-1V8h1a1 1 0 0 0 0-2h-1V5a1 1 0 0 0-1-1H5a3 3 0 0 0 0 6h1.78l-1.73 8.65a5.94 5.94 0 0 0-3 4.74 1.45 1.45 0 0 0 1 1.52A4.48 4.48 0 0 0 12 25h5.1a4.48 4.48 0 0 0 8.9 0h1.56A1.49 1.49 0 0 0 29 23.51v-7.15a2.34 2.34 0 0 0-1-1.92V13h.38A1.61 1.61 0 0 0 30 11.38V4.62A1.61 1.61 0 0 0 28.38 3zM13 8H8V6h5a1 1 0 0 0 0 2zM4 7a1 1 0 0 1 1-1h1v2H5a1 1 0 0 1-1-1zm3.5 20a2.5 2.5 0 0 1-2.45-2H10a2.5 2.5 0 0 1-2.5 2zm14 0a2.5 2.5 0 0 1-2.45-2H24a2.5 2.5 0 0 1-2.5 2zM26 14h-6.5a.5.5 0 0 1 0-1H26zm2-3h-6V5h2v2a1 1 0 0 0 2 0V5h2z"/>
</svg>